<svg width="750" height="422" viewBox="0 0 750 422" fill="none" xmlns="http://www.w3.org/2000/svg">
<g id="JUnit">
<rect width="750" height="421.875" fill="#26374B"/>
<path id="UNIT TESTING WITH" d="M140.035 88.9609V103.477C140.035 105.889 139.278 107.796 137.765 109.199C136.261 110.601 134.202 111.303 131.589 111.303C129.015 111.303 126.972 110.622 125.458 109.259C123.945 107.897 123.173 106.025 123.142 103.644V88.9609H127.683V103.507C127.683 104.95 128.027 106.005 128.713 106.671C129.409 107.327 130.368 107.655 131.589 107.655C134.142 107.655 135.439 106.313 135.479 103.628V88.9609H140.035ZM175.476 111H170.935L162.095 96.499V111H157.554V88.9609H162.095L170.95 103.492V88.9609H175.476V111ZM198.065 111H193.524V88.9609H198.065V111ZM232.219 92.6392H225.468V111H220.927V92.6392H214.267V88.9609H232.219V92.6392ZM284.906 92.6392H278.155V111H273.614V92.6392H266.953V88.9609H284.906V92.6392ZM314.564 101.449H305.845V107.352H316.077V111H301.304V88.9609H316.047V92.6392H305.845V97.8916H314.564V101.449ZM343.965 105.218C343.965 104.36 343.662 103.704 343.057 103.25C342.451 102.786 341.361 102.301 339.787 101.797C338.213 101.282 336.967 100.778 336.048 100.283C333.546 98.931 332.294 97.1095 332.294 94.8188C332.294 93.6281 332.627 92.5685 333.293 91.6401C333.969 90.7017 334.933 89.9701 336.184 89.4453C337.446 88.9206 338.859 88.6582 340.423 88.6582C341.997 88.6582 343.4 88.9458 344.631 89.521C345.862 90.0861 346.816 90.8883 347.492 91.9277C348.178 92.9671 348.521 94.1478 348.521 95.4697H343.98C343.98 94.4606 343.662 93.6785 343.026 93.1235C342.391 92.5584 341.497 92.2759 340.347 92.2759C339.237 92.2759 338.374 92.513 337.759 92.9873C337.143 93.4515 336.835 94.0671 336.835 94.834C336.835 95.5505 337.194 96.1509 337.91 96.6353C338.637 97.1196 339.701 97.5737 341.104 97.9976C343.687 98.7746 345.569 99.7383 346.75 100.889C347.931 102.039 348.521 103.472 348.521 105.188C348.521 107.095 347.799 108.593 346.356 109.683C344.913 110.763 342.971 111.303 340.529 111.303C338.833 111.303 337.289 110.995 335.897 110.379C334.504 109.754 333.44 108.901 332.703 107.821C331.976 106.742 331.613 105.49 331.613 104.067H336.169C336.169 106.499 337.622 107.715 340.529 107.715C341.608 107.715 342.451 107.498 343.057 107.064C343.662 106.62 343.965 106.005 343.965 105.218ZM381.994 92.6392H375.243V111H370.702V92.6392H364.042V88.9609H381.994V92.6392ZM403.221 111H398.68V88.9609H403.221V111ZM439.161 111H434.62L425.78 96.499V111H421.239V88.9609H425.78L434.635 103.492V88.9609H439.161V111ZM474.359 108.215C473.542 109.194 472.386 109.956 470.893 110.5C469.399 111.035 467.744 111.303 465.928 111.303C464.021 111.303 462.346 110.889 460.903 110.062C459.47 109.224 458.36 108.013 457.573 106.429C456.795 104.844 456.397 102.983 456.377 100.843V99.3447C456.377 97.1449 456.745 95.2427 457.482 93.6382C458.228 92.0236 459.298 90.7925 460.691 89.9448C462.093 89.0871 463.733 88.6582 465.61 88.6582C468.224 88.6582 470.267 89.2839 471.74 90.5352C473.214 91.7764 474.087 93.5877 474.359 95.9692H469.939C469.737 94.7078 469.288 93.7845 468.592 93.1992C467.906 92.6139 466.957 92.3213 465.746 92.3213C464.202 92.3213 463.027 92.9015 462.219 94.062C461.412 95.2225 461.003 96.9481 460.993 99.2388V100.646C460.993 102.957 461.432 104.703 462.31 105.884C463.188 107.064 464.475 107.655 466.17 107.655C467.876 107.655 469.092 107.292 469.818 106.565V102.766H465.686V99.4204H474.359V108.215ZM530.527 104.643L533.494 88.9609H538.02L533.131 111H528.559L524.972 96.2568L521.385 111H516.813L511.924 88.9609H516.45L519.432 104.612L523.065 88.9609H526.91L530.527 104.643ZM559.111 111H554.57V88.9609H559.111V111ZM593.265 92.6392H586.514V111H581.973V92.6392H575.313V88.9609H593.265V92.6392ZM627.6 111H623.059V101.555H614.204V111H609.663V88.9609H614.204V97.8916H623.059V88.9609H627.6V111Z" fill="white"/>
<g id="JUnit_2">
<path d="M146.921 296.184C138.306 296.184 130.359 294.607 123.079 291.452C115.92 288.176 110.035 283.565 105.425 277.62L121.805 257.964C128.721 267.307 136.607 271.978 145.465 271.978C157.477 271.978 163.483 264.941 163.483 250.866V190.26H118.711V166.6H192.785V249.228C192.785 264.88 188.902 276.649 181.137 284.536C173.371 292.301 161.966 296.184 146.921 296.184Z" fill="#00D918"/>
<path d="M286.7 296.184C268.5 296.184 254.304 291.149 244.112 281.078C234.041 271.007 229.006 256.629 229.006 237.944V166.6H258.49V236.852C258.49 259.663 267.954 271.068 286.882 271.068C296.103 271.068 303.14 268.338 307.994 262.878C312.847 257.297 315.274 248.621 315.274 236.852V166.6H344.394V237.944C344.394 256.629 339.298 271.007 329.106 281.078C319.035 291.149 304.9 296.184 286.7 296.184ZM439.231 194.628C451.365 194.628 461.132 198.268 468.533 205.548C476.056 212.828 479.817 223.627 479.817 237.944V294H451.425V242.312C451.425 234.547 449.727 228.783 446.329 225.022C442.932 221.139 438.018 219.198 431.587 219.198C424.429 219.198 418.726 221.443 414.479 225.932C410.233 230.3 408.109 236.852 408.109 245.588V294H379.717V196.084H406.835V207.55C410.597 203.425 415.268 200.27 420.849 198.086C426.431 195.781 432.558 194.628 439.231 194.628ZM513.743 196.084H542.135V294H513.743V196.084ZM527.939 182.434C522.722 182.434 518.475 180.917 515.199 177.884C511.923 174.851 510.285 171.089 510.285 166.6C510.285 162.111 511.923 158.349 515.199 155.316C518.475 152.283 522.722 150.766 527.939 150.766C533.157 150.766 537.403 152.222 540.679 155.134C543.955 158.046 545.593 161.686 545.593 166.054C545.593 170.786 543.955 174.729 540.679 177.884C537.403 180.917 533.157 182.434 527.939 182.434ZM639.829 289.268C637.039 291.331 633.581 292.908 629.455 294C625.451 294.971 621.205 295.456 616.715 295.456C605.067 295.456 596.028 292.483 589.597 286.538C583.288 280.593 580.133 271.857 580.133 260.33V220.108H565.027V198.268H580.133V174.426H608.525V198.268H632.913V220.108H608.525V259.966C608.525 264.091 609.557 267.307 611.619 269.612C613.803 271.796 616.837 272.888 620.719 272.888C625.209 272.888 629.031 271.675 632.185 269.248L639.829 289.268Z" fill="#FB000F"/>
</g>
</g>
</svg>
